<svg data-v-fde0c5aa="" xmlns="http://www.w3.org/2000/svg" viewBox="0 0 300 300" class="iconLeftSlogan"><!----><defs data-v-fde0c5aa=""><!----></defs><rect data-v-fde0c5aa="" fill="transparent" x="0" y="0" width="300px" height="300px" class="logo-background-square"></rect><defs data-v-fde0c5aa=""><!----></defs><g data-v-fde0c5aa="" id="2a82a5bc-91ab-44cf-9ce2-de8e1829dc78" fill="#000000" transform="matrix(3.12327016568858,0,0,3.12327016568858,119.890093248398,108.82976368685632)"><path d="M2.66 7.48L2.69 7.48L7.76 14.88L9.03 14.88L9.03 5.08L7.63 5.08L7.63 12.49L7.60 12.49L2.53 5.08L1.26 5.08L1.26 14.88L2.66 14.88ZM16.94 13.66L12.77 13.66L12.77 11.86L16.94 11.86L16.94 8.75L15.32 7.81L13.03 7.81L11.41 8.75L11.41 13.94L13.03 14.88L16.94 14.88ZM12.77 9.03L15.58 9.03L15.58 10.64L12.77 10.64ZM24.88 14.88L26.49 14.88L28.24 7.88L26.98 7.88L25.65 13.36L25.62 13.36L24.08 7.88L22.64 7.88L21.10 13.36L21.07 13.36L19.74 7.88L18.48 7.88L20.23 14.88L21.84 14.88L23.34 9.53L23.37 9.53ZM35.04 11.66L33.42 10.72L31.14 10.72L31.14 9.10L34.90 9.10L34.90 7.88L31.40 7.88L29.78 8.82L29.78 11.00L31.40 11.94L33.68 11.94L33.68 13.66L29.78 13.66L29.78 14.88L33.42 14.88L35.04 13.94ZM36.58 14.88L38.15 14.88L40.71 11.03L43.29 14.88L44.86 14.88L41.48 9.88L44.72 5.08L43.15 5.08L40.71 8.72L38.29 5.08L36.72 5.08L39.94 9.88Z"></path></g><defs data-v-fde0c5aa=""><linearGradient data-v-fde0c5aa="" gradientTransform="rotate(25)" id="69746f60-662a-4dc8-a16a-8892ae988f2e" x1="0%" y1="0%" x2="100%" y2="0%"><stop data-v-fde0c5aa="" offset="0%" stop-color="#007DE8" stop-opacity="1"></stop><stop data-v-fde0c5aa="" offset="100%" stop-color="#A1C3DB" stop-opacity="1"></stop></linearGradient></defs><g data-v-fde0c5aa="" id="f723f9d5-3ef9-41ec-b37a-74b5d823ba62" stroke="none" fill="url(#69746f60-662a-4dc8-a16a-8892ae988f2e)" transform="matrix(0.7869490403042199,0,0,0.7869490403042199,35.67178027832679,111.0460225049411)"><path d="M43.5 29.609l-.11-.109h-1.414l1.524 1.531zM43.5 38.145L34.906 29.5h-1.415L43.5 39.566zM36.76 65.5L5.5 34.063v1.421L35.346 65.5zM33.932 65.5L5.5 36.906v1.422L32.518 65.5zM43.5 55.213L17.935 29.5h-1.414L43.5 56.635zM43.5 35.299L37.734 29.5H36.32l7.18 7.221zM42.417 65.5l-35.796-36H5.5v.295L41.002 65.5zM43.5 40.988L32.077 29.5h-1.414L43.5 42.41zM43.5 32.455L40.562 29.5h-1.414l4.352 4.377zM14.134 65.5L5.5 56.799v1.422l7.221 7.279zM43.5 58.057L15.106 29.5h-1.414L43.5 59.479zM8.035 29.5L43.5 65.168v-1.424L9.449 29.5zM43.5 60.9L12.278 29.5h-1.415L43.5 62.322zM39.588 65.5L5.5 31.219v1.422L38.174 65.5zM22.616 65.5L5.5 48.281v1.418L21.202 65.5zM25.445 65.5L5.5 45.439v1.422L24.031 65.5zM43.5 43.834L29.248 29.5h-1.414L43.5 45.256zM43.5 49.523L23.591 29.5h-1.414L43.5 50.945zM16.961 65.5L5.5 53.957v1.42L15.548 65.5zM19.789 65.5L5.5 51.119v1.418L18.375 65.5zM43.5 52.367L20.763 29.5h-1.414L43.5 53.789zM11.307 65.5L5.5 59.643v1.423L9.893 65.5zM8.479 65.5L5.5 62.492v1.426L7.065 65.5zM31.104 65.5L5.5 39.75v1.424L29.689 65.5zM28.273 65.5L5.5 42.596v1.422L26.859 65.5zM43.5 46.678L26.42 29.5h-1.414L43.5 48.1zM5.5 17.5h67v6h-67zM49.5 29.5h46v4h-46zM5.5 87.5h45v4h-45zM5.5 71.5h83v4h-83zM5.5 79.5h90v4h-90zM49.5 53.5h46v4h-46zM49.5 37.5h29v4h-29zM49.5 61.5h29v4h-29zM49.5 45.5h39v4h-39zM5.5 7.5h90v6h-90z"></path></g><defs data-v-fde0c5aa=""><!----></defs><g data-v-fde0c5aa="" id="2af83cc5-bd3c-421f-b749-0dbe3c75a85d" fill="#000000" transform="matrix(0.38164453716086866,0,0,0.38164453716086866,123.7567176079611,163.91483795443062)"><path d="M7.43 3.78L4.16 9.42L4.16 13.02L3.46 13.02L3.46 9.42L0.18 3.78L1.01 3.78L3.81 8.69L6.61 3.78L7.43 3.78ZM19.40 3.64Q20.71 3.64 21.66 4.22Q22.62 4.80 23.14 5.87Q23.66 6.94 23.66 8.40L23.66 8.40Q23.66 9.86 23.14 10.93Q22.62 12.00 21.66 12.58Q20.71 13.16 19.40 13.16L19.40 13.16Q18.10 13.16 17.14 12.58Q16.18 12.00 15.67 10.93Q15.15 9.86 15.15 8.40L15.15 8.40Q15.15 6.94 15.67 5.87Q16.18 4.80 17.14 4.22Q18.10 3.64 19.40 3.64L19.40 3.64ZM19.40 4.28Q18.33 4.28 17.54 4.78Q16.74 5.28 16.32 6.21Q15.89 7.14 15.89 8.40L15.89 8.40Q15.89 9.66 16.32 10.59Q16.74 11.52 17.54 12.02Q18.33 12.52 19.40 12.52L19.40 12.52Q20.48 12.52 21.28 12.02Q22.08 11.52 22.51 10.59Q22.93 9.66 22.93 8.40L22.93 8.40Q22.93 7.14 22.51 6.21Q22.08 5.28 21.28 4.78Q20.48 4.28 19.40 4.28L19.40 4.28ZM40.00 3.78L40.00 9.65Q40.00 11.35 39.07 12.26Q38.15 13.16 36.44 13.16L36.44 13.16Q34.73 13.16 33.80 12.26Q32.87 11.35 32.87 9.65L32.87 9.65L32.87 3.78L33.57 3.78L33.57 9.51Q33.57 10.99 34.30 11.75Q35.03 12.52 36.44 12.52L36.44 12.52Q37.84 12.52 38.57 11.75Q39.30 10.99 39.30 9.51L39.30 9.51L39.30 3.78L40.00 3.78ZM56.74 13.02L55.92 13.02L53.27 9.02L53.23 9.02L50.50 9.02L50.50 13.02L49.80 13.02L49.80 3.78L53.23 3.78Q54.61 3.78 55.43 4.48Q56.25 5.18 56.25 6.40L56.25 6.40Q56.25 7.41 55.66 8.07Q55.08 8.74 54.05 8.93L54.05 8.93L56.74 13.02ZM50.50 4.42L50.50 8.36L53.21 8.36Q54.33 8.36 54.93 7.85Q55.52 7.35 55.52 6.40L55.52 6.40Q55.52 5.45 54.93 4.93Q54.33 4.42 53.21 4.42L53.21 4.42L50.50 4.42ZM77.84 3.78L77.84 13.02L77.14 13.02L77.14 3.78L77.84 3.78ZM94.85 3.78L94.85 13.02L93.98 13.02L89.08 5.77L88.40 4.54L88.38 4.54L88.42 5.70L88.42 13.02L87.75 13.02L87.75 3.78L88.63 3.78L93.52 11.02L94.22 12.26L94.19 11.10L94.19 3.78L94.85 3.78ZM107.62 3.64Q110.22 3.64 111.10 5.68L111.10 5.68L110.50 6.17Q110.15 5.18 109.46 4.73Q108.77 4.28 107.63 4.28L107.63 4.28Q106.82 4.28 106.22 4.54Q105.62 4.79 105.30 5.22Q104.99 5.66 104.99 6.20L104.99 6.20Q104.99 6.73 105.25 7.08Q105.52 7.43 106.16 7.68Q106.79 7.92 107.91 8.12L107.91 8.12Q109.72 8.43 110.47 9.02Q111.23 9.60 111.23 10.64L111.23 10.64Q111.23 11.38 110.80 11.96Q110.36 12.53 109.57 12.84Q108.78 13.16 107.76 13.16L107.76 13.16Q106.30 13.16 105.30 12.58Q104.30 12.00 103.94 10.95L103.94 10.95L104.55 10.47Q104.83 11.47 105.68 11.99Q106.53 12.52 107.77 12.52L107.77 12.52Q108.98 12.52 109.74 12.03Q110.50 11.54 110.50 10.68L110.50 10.68Q110.50 9.94 109.88 9.51Q109.26 9.07 107.72 8.81L107.72 8.81Q106.41 8.58 105.66 8.26Q104.90 7.94 104.57 7.46Q104.24 6.99 104.24 6.27L104.24 6.27Q104.24 5.56 104.66 4.96Q105.07 4.35 105.83 4.00Q106.60 3.64 107.62 3.64L107.62 3.64ZM121.13 3.78L121.13 13.02L120.43 13.02L120.43 3.78L121.13 3.78ZM134.60 8.50L138.39 8.50L138.39 13.02L137.83 13.02L137.80 11.41Q137.42 12.25 136.62 12.71Q135.81 13.16 134.62 13.16L134.62 13.16Q133.36 13.16 132.42 12.58Q131.47 12.00 130.96 10.92Q130.45 9.84 130.45 8.40L130.45 8.40Q130.45 6.96 130.98 5.88Q131.50 4.80 132.45 4.22Q133.41 3.64 134.67 3.64L134.67 3.64Q136.08 3.64 136.98 4.20Q137.87 4.76 138.32 5.91L138.32 5.91L137.68 6.24Q137.35 5.28 136.59 4.78Q135.83 4.28 134.67 4.28L134.67 4.28Q133.63 4.28 132.85 4.78Q132.06 5.28 131.63 6.21Q131.19 7.14 131.19 8.40L131.19 8.40Q131.19 10.32 132.11 11.42Q133.03 12.52 134.65 12.52L134.65 12.52Q135.66 12.52 136.36 12.12Q137.06 11.72 137.40 11.07Q137.73 10.42 137.73 9.67L137.73 9.67L137.73 9.16L134.60 9.16L134.60 8.50ZM154.28 3.78L154.98 3.78L154.98 13.02L154.28 13.02L154.28 8.65L148.57 8.65L148.57 13.02L147.87 13.02L147.87 3.78L148.57 3.78L148.57 7.99L154.28 7.99L154.28 3.78ZM171.19 3.78L171.19 4.42L167.82 4.42L167.82 13.02L167.12 13.02L167.12 4.42L163.74 4.42L163.74 3.78L171.19 3.78ZM178.81 11.87Q179.17 11.87 179.38 12.15Q179.58 12.43 179.58 12.89L179.58 12.89Q179.58 13.48 179.27 14Q178.96 14.52 178.37 14.81L178.37 14.81L177.98 14.46Q178.47 14.28 178.79 13.85Q179.10 13.41 179.07 13.01L179.07 13.01L179.03 12.99Q178.93 13.13 178.71 13.13L178.71 13.13Q178.50 13.13 178.33 12.96Q178.16 12.80 178.16 12.52L178.16 12.52Q178.16 12.25 178.35 12.06Q178.54 11.87 178.81 11.87L178.81 11.87ZM203.84 3.64Q205.14 3.64 206.10 4.22Q207.06 4.80 207.58 5.87Q208.10 6.94 208.10 8.40L208.10 8.40Q208.10 9.86 207.58 10.93Q207.06 12.00 206.10 12.58Q205.14 13.16 203.84 13.16L203.84 13.16Q202.54 13.16 201.58 12.58Q200.62 12.00 200.10 10.93Q199.58 9.86 199.58 8.40L199.58 8.40Q199.58 6.94 200.10 5.87Q200.62 4.80 201.58 4.22Q202.54 3.64 203.84 3.64L203.84 3.64ZM203.84 4.28Q202.76 4.28 201.97 4.78Q201.18 5.28 200.75 6.21Q200.33 7.14 200.33 8.40L200.33 8.40Q200.33 9.66 200.75 10.59Q201.18 11.52 201.97 12.02Q202.76 12.52 203.84 12.52L203.84 12.52Q204.92 12.52 205.72 12.02Q206.51 11.52 206.94 10.59Q207.37 9.66 207.37 8.40L207.37 8.40Q207.37 7.14 206.94 6.21Q206.51 5.28 205.72 4.78Q204.92 4.28 203.84 4.28L203.84 4.28ZM224.43 3.78L224.43 9.65Q224.43 11.35 223.51 12.26Q222.59 13.16 220.88 13.16L220.88 13.16Q219.17 13.16 218.24 12.26Q217.31 11.35 217.31 9.65L217.31 9.65L217.31 3.78L218.01 3.78L218.01 9.51Q218.01 10.99 218.74 11.75Q219.46 12.52 220.88 12.52L220.88 12.52Q222.28 12.52 223.01 11.75Q223.73 10.99 223.73 9.51L223.73 9.51L223.73 3.78L224.43 3.78ZM241.18 13.02L240.35 13.02L237.71 9.02L237.66 9.02L234.93 9.02L234.93 13.02L234.23 13.02L234.23 3.78L237.66 3.78Q239.05 3.78 239.87 4.48Q240.69 5.18 240.69 6.40L240.69 6.40Q240.69 7.41 240.10 8.07Q239.51 8.74 238.49 8.93L238.49 8.93L241.18 13.02ZM234.93 4.42L234.93 8.36L237.65 8.36Q238.77 8.36 239.36 7.85Q239.96 7.35 239.96 6.40L239.96 6.40Q239.96 5.45 239.36 4.93Q238.77 4.42 237.65 4.42L237.65 4.42L234.93 4.42ZM270.17 3.78L270.17 13.02L269.50 13.02L269.50 6.13L269.58 4.45L269.57 4.45L266.20 13.02L265.55 13.02L262.18 4.45L262.16 4.45L262.25 6.13L262.25 13.02L261.58 13.02L261.58 3.78L262.63 3.78L265.41 10.78L265.87 12.19L265.89 12.19L266.34 10.79L269.12 3.78L270.17 3.78ZM280.78 3.78L280.78 13.02L280.08 13.02L280.08 3.78L280.78 3.78ZM293.55 3.64Q296.16 3.64 297.04 5.68L297.04 5.68L296.44 6.17Q296.09 5.18 295.39 4.73Q294.70 4.28 293.57 4.28L293.57 4.28Q292.75 4.28 292.15 4.54Q291.55 4.79 291.24 5.22Q290.92 5.66 290.92 6.20L290.92 6.20Q290.92 6.73 291.19 7.08Q291.45 7.43 292.09 7.68Q292.73 7.92 293.85 8.12L293.85 8.12Q295.65 8.43 296.41 9.02Q297.16 9.60 297.16 10.64L297.16 10.64Q297.16 11.38 296.73 11.96Q296.30 12.53 295.50 12.84Q294.71 13.16 293.69 13.16L293.69 13.16Q292.24 13.16 291.24 12.58Q290.23 12.00 289.87 10.95L289.87 10.95L290.49 10.47Q290.77 11.47 291.61 11.99Q292.46 12.52 293.71 12.52L293.71 12.52Q294.91 12.52 295.67 12.03Q296.44 11.54 296.44 10.68L296.44 10.68Q296.44 9.94 295.81 9.51Q295.19 9.07 293.65 8.81L293.65 8.81Q292.35 8.58 291.59 8.26Q290.84 7.94 290.51 7.46Q290.18 6.99 290.18 6.27L290.18 6.27Q290.18 5.56 290.59 4.96Q291.00 4.35 291.77 4.00Q292.53 3.64 293.55 3.64L293.55 3.64ZM309.22 3.64Q311.82 3.64 312.70 5.68L312.70 5.68L312.10 6.17Q311.75 5.18 311.06 4.73Q310.37 4.28 309.23 4.28L309.23 4.28Q308.42 4.28 307.82 4.54Q307.22 4.79 306.90 5.22Q306.59 5.66 306.59 6.20L306.59 6.20Q306.59 6.73 306.85 7.08Q307.12 7.43 307.75 7.68Q308.39 7.92 309.51 8.12L309.51 8.12Q311.32 8.43 312.07 9.02Q312.83 9.60 312.83 10.64L312.83 10.64Q312.83 11.38 312.40 11.96Q311.96 12.53 311.17 12.84Q310.38 13.16 309.36 13.16L309.36 13.16Q307.90 13.16 306.90 12.58Q305.90 12.00 305.54 10.95L305.54 10.95L306.15 10.47Q306.43 11.47 307.28 11.99Q308.13 12.52 309.37 12.52L309.37 12.52Q310.58 12.52 311.34 12.03Q312.10 11.54 312.10 10.68L312.10 10.68Q312.10 9.94 311.48 9.51Q310.86 9.07 309.32 8.81L309.32 8.81Q308.01 8.58 307.26 8.26Q306.50 7.94 306.17 7.46Q305.84 6.99 305.84 6.27L305.84 6.27Q305.84 5.56 306.26 4.96Q306.67 4.35 307.43 4.00Q308.20 3.64 309.22 3.64L309.22 3.64ZM322.73 3.78L322.73 13.02L322.03 13.02L322.03 3.78L322.73 3.78ZM336.31 3.64Q337.61 3.64 338.57 4.22Q339.53 4.80 340.05 5.87Q340.56 6.94 340.56 8.40L340.56 8.40Q340.56 9.86 340.05 10.93Q339.53 12.00 338.57 12.58Q337.61 13.16 336.31 13.16L336.31 13.16Q335.01 13.16 334.05 12.58Q333.09 12.00 332.57 10.93Q332.05 9.86 332.05 8.40L332.05 8.40Q332.05 6.94 332.57 5.87Q333.09 4.80 334.05 4.22Q335.01 3.64 336.31 3.64L336.31 3.64ZM336.31 4.28Q335.23 4.28 334.44 4.78Q333.65 5.28 333.22 6.21Q332.79 7.14 332.79 8.40L332.79 8.40Q332.79 9.66 333.22 10.59Q333.65 11.52 334.44 12.02Q335.23 12.52 336.31 12.52L336.31 12.52Q337.39 12.52 338.18 12.02Q338.98 11.52 339.41 10.59Q339.84 9.66 339.84 8.40L339.84 8.40Q339.84 7.14 339.41 6.21Q338.98 5.28 338.18 4.78Q337.39 4.28 336.31 4.28L336.31 4.28ZM356.99 3.78L356.99 13.02L356.12 13.02L351.22 5.77L350.53 4.54L350.52 4.54L350.56 5.70L350.56 13.02L349.89 13.02L349.89 3.78L350.77 3.78L355.66 11.02L356.36 12.26L356.33 11.10L356.33 3.78L356.99 3.78Z"></path></g></svg>