<svg data-v-fde0c5aa="" xmlns="http://www.w3.org/2000/svg" viewBox="0 0 300 300" class="font"><!----><defs data-v-fde0c5aa=""><!----></defs><rect data-v-fde0c5aa="" fill="transparent" x="0" y="0" width="300px" height="300px" class="logo-background-square"></rect><defs data-v-fde0c5aa=""><linearGradient data-v-fde0c5aa="" gradientTransform="rotate(25)" id="9e87a952-7ee9-4dad-bfb5-e6061def3025" x1="0%" y1="0%" x2="100%" y2="0%"><stop data-v-fde0c5aa="" offset="0%" stop-color="#007DE8" stop-opacity="1"></stop><stop data-v-fde0c5aa="" offset="100%" stop-color="#A1C3DB" stop-opacity="1"></stop></linearGradient></defs><g data-v-fde0c5aa="" id="df66acac-dcb0-41f5-aa05-9983fba84fbc" fill="url(#9e87a952-7ee9-4dad-bfb5-e6061def3025)" transform="matrix(5.045871294745806,0,0,5.045871294745806,33.642202216741445,99.64220438219449)"><path d="M2.66 7.48L2.69 7.48L7.76 14.88L9.03 14.88L9.03 5.08L7.63 5.08L7.63 12.49L7.60 12.49L2.53 5.08L1.26 5.08L1.26 14.88L2.66 14.88ZM16.94 13.66L12.77 13.66L12.77 11.86L16.94 11.86L16.94 8.75L15.32 7.81L13.03 7.81L11.41 8.75L11.41 13.94L13.03 14.88L16.94 14.88ZM12.77 9.03L15.58 9.03L15.58 10.64L12.77 10.64ZM24.88 14.88L26.49 14.88L28.24 7.88L26.98 7.88L25.65 13.36L25.62 13.36L24.08 7.88L22.64 7.88L21.10 13.36L21.07 13.36L19.74 7.88L18.48 7.88L20.23 14.88L21.84 14.88L23.34 9.53L23.37 9.53ZM35.04 11.66L33.42 10.72L31.14 10.72L31.14 9.10L34.90 9.10L34.90 7.88L31.40 7.88L29.78 8.82L29.78 11.00L31.40 11.94L33.68 11.94L33.68 13.66L29.78 13.66L29.78 14.88L33.42 14.88L35.04 13.94ZM36.58 14.88L38.15 14.88L40.71 11.03L43.29 14.88L44.86 14.88L41.48 9.88L44.72 5.08L43.15 5.08L40.71 8.72L38.29 5.08L36.72 5.08L39.94 9.88Z"></path></g><!----><!----></svg>