<svg data-v-423bf9ae="" xmlns="http://www.w3.org/2000/svg" viewBox="0 0 1871.0594277888688 193" class="fontAboveSlogan"><!----><!----><!----><g data-v-423bf9ae="" id="c572683a-0d1b-4db2-8241-5d3c105b2130" fill="black" transform="matrix(11.79940994098097,0,0,11.79940994098097,664.1945831583741,-21.842860953357345)"><path d="M2.28 12.07L1.23 12.07L1.23 1.93L1.45 1.93L8.19 9.69L8.19 1.93L9.19 1.93L9.19 12.07L8.96 12.07L2.28 4.41L2.28 12.07ZM17.80 9.42L17.80 9.42L18.61 9.85Q18.22 10.64 17.69 11.12Q17.17 11.59 16.51 11.84Q15.85 12.09 15.03 12.09L15.03 12.09Q13.19 12.09 12.16 10.89Q11.13 9.69 11.13 8.18L11.13 8.18Q11.13 6.75 12.00 5.64L12.00 5.64Q13.11 4.22 14.98 4.22L14.98 4.22Q16.88 4.22 18.03 5.67L18.03 5.67Q18.85 6.70 18.85 8.23L18.85 8.23L12.12 8.23Q12.15 9.54 12.95 10.38Q13.76 11.22 14.94 11.22L14.94 11.22Q15.52 11.22 16.06 11.02Q16.60 10.81 16.98 10.49Q17.36 10.16 17.80 9.42ZM12.22 7.40L17.80 7.40Q17.61 6.63 17.24 6.17Q16.87 5.71 16.26 5.42Q15.65 5.14 14.98 5.14L14.98 5.14Q13.88 5.14 13.09 5.85L13.09 5.85Q12.52 6.37 12.22 7.40L12.22 7.40ZM22.84 12.10L19.64 4.60L20.63 4.60L22.93 10.05L25.33 4.60L25.50 4.60L27.90 10.05L30.24 4.60L31.25 4.60L27.99 12.10L27.80 12.10L25.42 6.73L23.02 12.10L22.84 12.10ZM36.14 5.23L36.14 5.23L35.53 5.87Q34.75 5.12 34.02 5.12L34.02 5.12Q33.54 5.12 33.21 5.43Q32.87 5.74 32.87 6.16L32.87 6.16Q32.87 6.51 33.15 6.84L33.15 6.84Q33.43 7.19 34.31 7.64L34.31 7.64Q35.39 8.20 35.77 8.72L35.77 8.72Q36.15 9.24 36.15 9.90L36.15 9.90Q36.15 10.81 35.50 11.45Q34.86 12.09 33.89 12.09L33.89 12.09Q33.24 12.09 32.65 11.82Q32.05 11.54 31.67 11.04L31.67 11.04L32.28 10.35Q33.02 11.18 33.84 11.18L33.84 11.18Q34.42 11.18 34.83 10.81Q35.23 10.44 35.23 9.94L35.23 9.94Q35.23 9.52 34.97 9.20L34.97 9.20Q34.70 8.88 33.76 8.39L33.76 8.39Q32.74 7.88 32.38 7.36L32.38 7.36Q32.01 6.86 32.01 6.20L32.01 6.20Q32.01 5.35 32.59 4.78Q33.17 4.22 34.06 4.22L34.06 4.22Q35.09 4.22 36.14 5.23ZM40.48 6.84L37.46 1.93L38.64 1.93L41.07 5.89L43.52 1.93L44.69 1.93L41.67 6.84L44.88 12.07L43.71 12.07L41.07 7.82L38.42 12.07L37.24 12.07L40.48 6.84Z"></path></g><!----><!----><g data-v-423bf9ae="" id="1c40c4da-22fc-4355-9a74-e76c38d835e2" fill="black" transform="matrix(5.167958384645006,0,0,5.167958384645006,-2.687362843897631,118.27132052712813)"><path d="M0.52 3.64L0.52 3.64L0.53 3.08L3.67 3.08L3.67 3.64L3.39 3.64Q2.94 3.64 2.83 3.66L2.83 3.66Q2.66 3.71 2.66 3.82L2.66 3.82Q2.66 3.89 2.91 4.31L2.91 4.31L4.92 7.46L7.36 3.99Q7.44 3.83 7.45 3.82L7.45 3.82Q7.45 3.64 6.54 3.64L6.54 3.64L6.32 3.64L6.30 3.08L8.85 3.08L8.85 3.64L8.78 3.64Q8.43 3.64 8.29 3.72L8.29 3.72Q8.13 3.80 7.84 4.22L7.84 4.22L5.11 8.17L5.11 11.22Q5.11 11.66 5.22 11.77L5.22 11.77Q5.32 11.87 5.93 11.87L5.93 11.87L6.57 11.87L6.55 12.41L2.62 12.41L2.63 11.87L3.19 11.87Q3.73 11.87 3.85 11.79Q3.98 11.70 3.98 11.25L3.98 11.25L3.98 8.06L1.68 4.49Q1.26 3.84 1.13 3.73L1.13 3.73Q1.03 3.64 0.52 3.64ZM16.97 7.83L16.97 7.83Q16.97 6.62 17.37 5.68L17.37 5.68Q17.79 4.72 18.48 4.12L18.48 4.12Q19.17 3.51 20.03 3.19L20.03 3.19Q20.87 2.88 21.82 2.88L21.82 2.88Q23.08 2.88 24.13 3.40L24.13 3.40Q25.21 3.93 25.92 5.07L25.92 5.07Q26.62 6.17 26.63 7.75L26.63 7.75Q26.63 8.70 26.32 9.54Q26.01 10.38 25.41 11.10Q24.80 11.81 23.86 12.22L23.86 12.22Q22.90 12.63 21.71 12.64L21.71 12.64Q20.58 12.64 19.64 12.23Q18.70 11.83 18.14 11.14L18.14 11.14Q17.57 10.45 17.27 9.60L17.27 9.60Q16.97 8.72 16.97 7.83ZM18.22 7.38L18.22 7.38Q18.22 8.52 18.66 9.60L18.66 9.60Q19.06 10.64 19.99 11.33L19.99 11.33Q20.90 12.03 22.09 12.04L22.09 12.04Q23.46 12.04 24.40 11.01L24.40 11.01Q25.35 9.97 25.35 8.10L25.35 8.10Q25.35 5.99 24.19 4.72L24.19 4.72Q23.04 3.46 21.53 3.45L21.53 3.45Q21.01 3.45 20.46 3.65Q19.92 3.85 19.41 4.25L19.41 4.25Q18.87 4.68 18.55 5.48L18.55 5.48Q18.22 6.27 18.22 7.38ZM35.12 3.64L34.74 3.64L34.74 3.08L38.10 3.08L38.12 3.64L37.58 3.64Q37.15 3.64 37.00 3.73L37.00 3.73Q36.83 3.83 36.83 4.16L36.83 4.16L36.83 9.33Q36.83 9.63 36.86 9.78L36.86 9.78Q36.90 10.01 37.06 10.41L37.06 10.41Q37.24 10.80 37.53 11.09L37.53 11.09Q37.84 11.40 38.40 11.63L38.40 11.63Q38.97 11.85 39.75 11.85L39.75 11.85Q40.61 11.85 41.15 11.67L41.15 11.67Q41.71 11.48 42.02 11.22Q42.33 10.96 42.47 10.49L42.47 10.49Q42.64 9.95 42.65 9.66L42.65 9.66Q42.68 9.18 42.68 8.67L42.68 8.67L42.68 4.14Q42.68 3.81 42.54 3.72L42.54 3.72Q42.39 3.64 41.91 3.64L41.91 3.64L41.42 3.64L41.45 3.08L44.08 3.08L44.08 3.64L43.89 3.64Q43.57 3.64 43.45 3.75Q43.34 3.86 43.34 4.25L43.34 4.25L43.34 9.22Q43.34 12.67 39.75 12.67L39.75 12.67Q37.58 12.67 36.63 11.76L36.63 11.76Q35.70 10.86 35.70 9.41L35.70 9.41L35.70 4.14Q35.70 3.81 35.59 3.72L35.59 3.72Q35.49 3.64 35.12 3.64L35.12 3.64ZM52.15 3.64L51.76 3.64L51.78 3.08L55.00 3.08Q56.13 3.08 56.73 3.21L56.73 3.21Q57.37 3.37 57.84 3.75L57.84 3.75Q58.84 4.57 58.84 5.71L58.84 5.71Q58.84 6.43 58.37 7.04L58.37 7.04Q57.88 7.66 56.85 7.92L56.85 7.92L59.53 11.49Q59.84 11.87 60.14 11.87L60.14 11.87L60.74 11.87L60.76 12.41L58.73 12.41L55.74 8.10L55.57 8.10Q55.53 8.10 55.47 8.11Q55.42 8.11 55.41 8.11L55.41 8.11Q54.52 8.11 54.13 8.03L54.13 8.03L54.13 11.46Q54.13 11.76 54.27 11.81L54.27 11.81Q54.39 11.87 55.10 11.87L55.10 11.87L55.81 11.87L55.78 12.41L52.06 12.41L52.06 11.87L52.38 11.87Q52.84 11.87 52.91 11.81L52.91 11.81Q52.99 11.74 52.99 11.46L52.99 11.46L52.99 4.14Q52.99 3.82 52.80 3.73L52.80 3.73Q52.58 3.64 52.15 3.64L52.15 3.64ZM54.13 4.28L54.13 7.57Q54.31 7.70 55.02 7.71L55.02 7.71Q56.29 7.71 56.88 7.27L56.88 7.27Q57.46 6.84 57.46 5.92L57.46 5.92Q57.46 4.92 56.69 4.27L56.69 4.27Q55.93 3.64 54.55 3.64L54.55 3.64Q54.30 3.64 54.22 3.75L54.22 3.75Q54.13 3.84 54.13 4.28L54.13 4.28ZM78.67 3.64L78.09 3.64L78.10 3.08L81.61 3.08L81.61 3.64L81.38 3.64Q80.83 3.64 80.66 3.73L80.66 3.73Q80.53 3.81 80.53 4.28L80.53 4.28L80.53 11.22Q80.53 11.68 80.64 11.77Q80.75 11.87 81.28 11.87L81.28 11.87L81.83 11.87L81.84 12.41L78.26 12.41L78.24 11.87L78.61 11.87Q79.17 11.87 79.28 11.77Q79.39 11.67 79.39 11.25L79.39 11.25L79.39 4.14Q79.39 3.77 79.29 3.71L79.29 3.71Q79.18 3.64 78.67 3.64L78.67 3.64ZM89.59 3.64L89.58 3.08L91.75 3.08L97.49 10.48L97.49 4.14Q97.49 3.81 97.33 3.72Q97.18 3.64 96.72 3.64L96.72 3.64L96.23 3.64L96.26 3.08L99.24 3.08L99.24 3.64L98.92 3.64Q98.45 3.64 98.30 3.75Q98.15 3.86 98.15 4.25L98.15 4.25L98.15 12.32L98.15 12.47Q98.15 12.52 98.14 12.57Q98.12 12.61 98.09 12.64L98.09 12.64Q98.08 12.65 98.02 12.65L98.02 12.65L97.83 12.65L97.77 12.65L97.74 12.65L97.71 12.64Q97.69 12.64 97.67 12.63Q97.66 12.61 97.66 12.60Q97.66 12.58 97.64 12.57L97.64 12.57Q97.62 12.54 97.59 12.50L97.59 12.50Q97.58 12.48 97.56 12.45Q97.54 12.41 97.52 12.40L97.52 12.40L91.42 4.56L91.49 11.22Q91.49 11.67 91.65 11.77L91.65 11.77Q91.81 11.87 92.52 11.87L92.52 11.87L92.76 11.87L92.76 12.41L89.82 12.41L89.82 11.87L90.24 11.87Q90.62 11.87 90.73 11.76L90.73 11.76Q90.82 11.66 90.83 11.25L90.83 11.25L90.83 3.80L90.69 3.64L89.59 3.64ZM106.95 10.04L106.95 10.04L107.44 9.98L107.63 10.85Q107.73 11.33 107.80 11.41Q107.87 11.49 108.28 11.64L108.28 11.64Q109.12 11.95 110.02 11.95L110.02 11.95Q110.80 11.95 111.34 11.49L111.34 11.49Q111.88 11.04 111.88 10.26L111.88 10.26Q111.88 9.65 111.42 9.21L111.42 9.21Q110.94 8.76 110.09 8.30L110.09 8.30L109.51 7.98Q108.77 7.55 108.53 7.36L108.53 7.36Q108.17 7.08 107.86 6.59Q107.55 6.10 107.55 5.46L107.55 5.46Q107.55 4.39 108.39 3.68Q109.23 2.97 110.34 2.97L110.34 2.97Q110.62 2.97 110.97 3.04L110.97 3.04Q111.17 3.08 111.50 3.17L111.50 3.17L111.74 3.25Q111.84 3.25 111.88 3.16L111.88 3.16Q111.93 3.05 111.93 2.98L111.93 2.98L111.95 2.88L112.42 2.85L112.64 5.41L112.13 5.43L112.01 4.18Q111.26 3.62 110.10 3.62L110.10 3.62Q109.46 3.62 108.95 4.05L108.95 4.05Q108.47 4.47 108.47 5.12L108.47 5.12Q108.47 5.72 108.92 6.17L108.92 6.17Q109.35 6.60 110.22 7.08L110.22 7.08L111.00 7.50Q111.95 8.03 112.48 8.59Q113.01 9.15 113.01 9.92L113.01 9.92Q113.01 10.99 112.16 11.76L112.16 11.76Q111.29 12.54 109.83 12.54L109.83 12.54Q109.27 12.54 108.77 12.41Q108.27 12.29 108.21 12.29L108.21 12.29Q107.96 12.29 107.96 12.58L107.96 12.58L107.97 12.76L107.50 12.80Q107.43 12.41 106.95 10.04ZM121.78 3.64L121.19 3.64L121.21 3.08L124.72 3.08L124.72 3.64L124.49 3.64Q123.94 3.64 123.77 3.73L123.77 3.73Q123.63 3.81 123.63 4.28L123.63 4.28L123.63 11.22Q123.63 11.68 123.74 11.77Q123.85 11.87 124.39 11.87L124.39 11.87L124.93 11.87L124.95 12.41L121.37 12.41L121.35 11.87L121.71 11.87Q122.27 11.87 122.39 11.77Q122.50 11.67 122.50 11.25L122.50 11.25L122.50 4.14Q122.50 3.77 122.40 3.71L122.40 3.71Q122.29 3.64 121.78 3.64L121.78 3.64ZM133.07 8.24L133.07 8.24Q133.07 6.92 133.68 5.72Q134.30 4.52 135.53 3.72L135.53 3.72Q136.77 2.92 138.39 2.92L138.39 2.92Q139.66 2.92 141.24 3.57L141.24 3.57L141.24 2.86L141.80 2.86L141.90 5.92L141.35 5.93L141.26 4.48Q141.18 4.41 140.90 4.24L140.90 4.24Q140.65 4.07 139.90 3.83L139.90 3.83Q139.17 3.60 138.27 3.60L138.27 3.60Q137.29 3.60 136.52 3.93Q135.75 4.27 135.29 4.83L135.29 4.83Q134.83 5.39 134.58 6.08L134.58 6.08Q134.33 6.78 134.33 7.57L134.33 7.57Q134.33 9.33 135.45 10.69Q136.57 12.05 138.43 12.05L138.43 12.05Q139.13 12.05 139.76 11.85Q140.39 11.66 140.61 11.48L140.61 11.48L140.85 11.28L140.85 8.78L139.19 8.78L139.17 8.23L143.04 8.23L143.05 8.78L141.98 8.78L141.98 11.64L141.20 11.98Q140.50 12.30 140.27 12.39L140.27 12.39Q140.02 12.48 139.38 12.61L139.38 12.61Q138.77 12.74 138.16 12.74L138.16 12.74Q136.86 12.74 135.89 12.37L135.89 12.37Q134.90 12.00 134.29 11.36L134.29 11.36Q133.70 10.76 133.38 9.94L133.38 9.94Q133.07 9.15 133.07 8.24ZM151.16 3.64L150.79 3.64L150.79 3.08L154.27 3.08L154.27 3.64L153.91 3.64Q153.41 3.64 153.25 3.75L153.25 3.75Q153.12 3.84 153.11 4.25L153.11 4.25L153.11 6.91L157.66 6.91L157.66 4.14Q157.66 3.77 157.57 3.71L157.57 3.71Q157.46 3.64 156.93 3.64L156.93 3.64L156.34 3.64L156.33 3.08L159.89 3.08L159.89 3.64L159.50 3.64Q159.02 3.64 158.91 3.74Q158.80 3.83 158.80 4.22L158.80 4.22L158.80 11.29Q158.80 11.67 158.94 11.77L158.94 11.77Q159.09 11.87 159.64 11.87L159.64 11.87L160.11 11.87L160.10 12.41L156.61 12.41L156.60 11.87L157.01 11.87Q157.47 11.87 157.57 11.77Q157.66 11.67 157.66 11.25L157.66 11.25L157.66 7.58L153.11 7.58L153.11 11.25Q153.11 11.67 153.27 11.77Q153.42 11.87 154.12 11.87L154.12 11.87L154.53 11.87L154.50 12.41L150.92 12.41L150.90 11.87L151.27 11.87Q151.81 11.87 151.88 11.80L151.88 11.80Q151.98 11.70 151.98 11.25L151.98 11.25L151.98 4.09Q151.98 3.76 151.84 3.71L151.84 3.71Q151.67 3.64 151.16 3.64L151.16 3.64ZM168.13 5.35L167.63 5.33Q167.75 4.17 167.84 3.08L167.84 3.08L175.92 3.08Q175.83 4.13 175.81 4.53L175.81 4.53Q175.77 5.26 175.75 5.32L175.75 5.32L175.25 5.30Q175.33 4.34 175.33 4.16L175.33 4.16Q175.33 3.88 175.18 3.79L175.18 3.79Q175.01 3.69 174.61 3.69L174.61 3.69L173.00 3.69Q172.50 3.69 172.38 3.79L172.38 3.79Q172.28 3.87 172.27 4.36L172.27 4.36L172.27 11.22Q172.27 11.66 172.42 11.76L172.42 11.76Q172.57 11.87 173.09 11.87L173.09 11.87L173.65 11.87L173.66 12.41L169.97 12.40L169.97 11.87L170.19 11.87Q170.86 11.87 171.00 11.79Q171.14 11.70 171.14 11.28L171.14 11.28L171.14 4.48Q171.14 3.92 171.05 3.80Q170.95 3.69 170.52 3.69L170.52 3.69L169.05 3.69Q168.87 3.69 168.80 3.71Q168.73 3.72 168.62 3.72L168.62 3.72Q168.59 3.72 168.48 3.79L168.48 3.79Q168.40 3.84 168.37 3.86Q168.34 3.88 168.30 3.99L168.30 3.99Q168.27 4.05 168.25 4.14L168.25 4.14Q168.22 4.21 168.20 4.36L168.20 4.36Q168.17 4.59 168.17 4.61L168.17 4.61Q168.17 4.80 168.16 4.95L168.16 4.95Q168.16 5.02 168.15 5.15Q168.14 5.29 168.13 5.35L168.13 5.35ZM183.77 14.26L183.77 14.26Q183.77 14.18 183.92 14.07L183.92 14.07Q183.95 14.04 184.26 13.86L184.26 13.86Q184.45 13.73 184.60 13.48L184.60 13.48Q184.75 13.21 184.75 12.87L184.75 12.87Q184.75 12.65 184.65 12.48L184.65 12.48Q184.57 12.33 184.44 12.28L184.44 12.28Q184.36 12.24 184.24 12.15L184.24 12.15Q184.15 12.08 184.15 12.00L184.15 12.00Q184.15 11.84 184.43 11.59Q184.71 11.33 184.79 11.33L184.79 11.33Q184.82 11.33 185.01 11.39L185.01 11.39Q185.14 11.43 185.36 11.72L185.36 11.72Q185.58 12.00 185.58 12.44L185.58 12.44Q185.58 12.86 185.39 13.31Q185.21 13.76 184.95 14.03L184.95 14.03Q184.52 14.46 183.95 14.46L183.95 14.46Q183.77 14.46 183.77 14.26ZM203.72 7.83L203.72 7.83Q203.72 6.62 204.13 5.68L204.13 5.68Q204.54 4.72 205.24 4.12L205.24 4.12Q205.93 3.51 206.79 3.19L206.79 3.19Q207.63 2.88 208.58 2.88L208.58 2.88Q209.84 2.88 210.89 3.40L210.89 3.40Q211.97 3.93 212.68 5.07L212.68 5.07Q213.38 6.17 213.38 7.75L213.38 7.75Q213.38 8.70 213.08 9.54Q212.77 10.38 212.16 11.10Q211.56 11.81 210.62 12.22L210.62 12.22Q209.66 12.63 208.47 12.64L208.47 12.64Q207.33 12.64 206.40 12.23Q205.46 11.83 204.90 11.14L204.90 11.14Q204.33 10.45 204.03 9.60L204.03 9.60Q203.72 8.72 203.72 7.83ZM204.98 7.38L204.98 7.38Q204.98 8.52 205.41 9.60L205.41 9.60Q205.82 10.64 206.75 11.33L206.75 11.33Q207.66 12.03 208.84 12.04L208.84 12.04Q210.22 12.04 211.16 11.01L211.16 11.01Q212.11 9.97 212.11 8.10L212.11 8.10Q212.11 5.99 210.94 4.72L210.94 4.72Q209.79 3.46 208.28 3.45L208.28 3.45Q207.76 3.45 207.22 3.65Q206.68 3.85 206.17 4.25L206.17 4.25Q205.63 4.68 205.30 5.48L205.30 5.48Q204.98 6.27 204.98 7.38ZM221.88 3.64L221.50 3.64L221.50 3.08L224.86 3.08L224.88 3.64L224.34 3.64Q223.91 3.64 223.75 3.73L223.75 3.73Q223.58 3.83 223.58 4.16L223.58 4.16L223.58 9.33Q223.58 9.63 223.62 9.78L223.62 9.78Q223.66 10.01 223.82 10.41L223.82 10.41Q223.99 10.80 224.29 11.09L224.29 11.09Q224.59 11.40 225.16 11.63L225.16 11.63Q225.73 11.85 226.51 11.85L226.51 11.85Q227.36 11.85 227.91 11.67L227.91 11.67Q228.47 11.48 228.78 11.22Q229.09 10.96 229.23 10.49L229.23 10.49Q229.40 9.95 229.41 9.66L229.41 9.66Q229.43 9.18 229.44 8.67L229.44 8.67L229.44 4.14Q229.44 3.81 229.30 3.72L229.30 3.72Q229.15 3.64 228.67 3.64L228.67 3.64L228.18 3.64L228.20 3.08L230.84 3.08L230.84 3.64L230.64 3.64Q230.32 3.64 230.21 3.75Q230.10 3.86 230.10 4.25L230.10 4.25L230.10 9.22Q230.10 12.67 226.51 12.67L226.51 12.67Q224.34 12.67 223.39 11.76L223.39 11.76Q222.46 10.86 222.46 9.41L222.46 9.41L222.46 4.14Q222.46 3.81 222.35 3.72L222.35 3.72Q222.24 3.64 221.88 3.64L221.88 3.64ZM238.91 3.64L238.52 3.64L238.53 3.08L241.75 3.08Q242.89 3.08 243.49 3.21L243.49 3.21Q244.13 3.37 244.60 3.75L244.60 3.75Q245.60 4.57 245.60 5.71L245.60 5.71Q245.60 6.43 245.13 7.04L245.13 7.04Q244.64 7.66 243.61 7.92L243.61 7.92L246.29 11.49Q246.60 11.87 246.89 11.87L246.89 11.87L247.50 11.87L247.52 12.41L245.49 12.41L242.50 8.10L242.33 8.10Q242.29 8.10 242.23 8.11Q242.18 8.11 242.16 8.11L242.16 8.11Q241.28 8.11 240.88 8.03L240.88 8.03L240.88 11.46Q240.88 11.76 241.03 11.81L241.03 11.81Q241.15 11.87 241.86 11.87L241.86 11.87L242.57 11.87L242.54 12.41L238.81 12.41L238.81 11.87L239.13 11.87Q239.60 11.87 239.67 11.81L239.67 11.81Q239.75 11.74 239.75 11.46L239.75 11.46L239.75 4.14Q239.75 3.82 239.56 3.73L239.56 3.73Q239.33 3.64 238.91 3.64L238.91 3.64ZM240.88 4.28L240.88 7.57Q241.07 7.70 241.78 7.71L241.78 7.71Q243.05 7.71 243.63 7.27L243.63 7.27Q244.22 6.84 244.22 5.92L244.22 5.92Q244.22 4.92 243.45 4.27L243.45 4.27Q242.69 3.64 241.31 3.64L241.31 3.64Q241.06 3.64 240.97 3.75L240.97 3.75Q240.89 3.84 240.88 4.28L240.88 4.28ZM268.01 12.41L264.99 12.41L264.99 11.87L265.13 11.87Q265.71 11.87 265.83 11.77L265.83 11.77Q265.95 11.68 265.97 11.21L265.97 11.21L266.10 4.38Q266.10 4.35 266.10 4.28Q266.11 4.21 266.11 4.17L266.11 4.17L266.11 4.01Q266.11 3.76 266.03 3.71L266.03 3.71Q265.94 3.64 265.71 3.64L265.71 3.64L265.00 3.64L264.99 3.08L267.10 3.08L270.29 10.55L273.43 3.08L275.67 3.08L275.67 3.64L275.19 3.64Q274.74 3.64 274.62 3.71L274.62 3.71Q274.46 3.79 274.46 4.08L274.46 4.08L274.46 11.22Q274.46 11.68 274.58 11.77Q274.69 11.87 275.32 11.87L275.32 11.87L275.60 11.87L275.61 12.41L272.21 12.41L272.19 11.87L272.47 11.87Q273.09 11.87 273.21 11.77L273.21 11.77Q273.33 11.66 273.33 11.25L273.33 11.25L273.33 4.83L271.17 9.91L270.32 12.02Q270.18 12.37 270.14 12.44Q270.09 12.51 270.03 12.51L270.03 12.51Q269.93 12.51 269.48 11.52L269.48 11.52L266.67 5.01L266.61 11.39Q266.61 11.74 266.81 11.80L266.81 11.80Q267.05 11.87 268.01 11.87L268.01 11.87L268.01 12.41ZM283.92 3.64L283.34 3.64L283.35 3.08L286.86 3.08L286.86 3.64L286.63 3.64Q286.08 3.64 285.91 3.73L285.91 3.73Q285.78 3.81 285.78 4.28L285.78 4.28L285.78 11.22Q285.78 11.68 285.89 11.77Q286.00 11.87 286.53 11.87L286.53 11.87L287.08 11.87L287.09 12.41L283.51 12.41L283.49 11.87L283.86 11.87Q284.42 11.87 284.53 11.77Q284.64 11.67 284.64 11.25L284.64 11.25L284.64 4.14Q284.64 3.77 284.54 3.71L284.54 3.71Q284.43 3.64 283.92 3.64L283.92 3.64ZM294.80 10.04L294.80 10.04L295.29 9.98L295.48 10.85Q295.59 11.33 295.65 11.41Q295.72 11.49 296.13 11.64L296.13 11.64Q296.97 11.95 297.87 11.95L297.87 11.95Q298.66 11.95 299.20 11.49L299.20 11.49Q299.73 11.04 299.73 10.26L299.73 10.26Q299.73 9.65 299.27 9.21L299.27 9.21Q298.79 8.76 297.94 8.30L297.94 8.30L297.36 7.98Q296.62 7.55 296.39 7.36L296.39 7.36Q296.02 7.08 295.71 6.59Q295.40 6.10 295.40 5.46L295.40 5.46Q295.40 4.39 296.24 3.68Q297.08 2.97 298.19 2.97L298.19 2.97Q298.47 2.97 298.82 3.04L298.82 3.04Q299.02 3.08 299.35 3.17L299.35 3.17L299.59 3.25Q299.69 3.25 299.73 3.16L299.73 3.16Q299.78 3.05 299.78 2.98L299.78 2.98L299.80 2.88L300.28 2.85L300.49 5.41L299.98 5.43L299.86 4.18Q299.11 3.62 297.95 3.62L297.95 3.62Q297.31 3.62 296.80 4.05L296.80 4.05Q296.32 4.47 296.32 5.12L296.32 5.12Q296.32 5.72 296.78 6.17L296.78 6.17Q297.21 6.60 298.07 7.08L298.07 7.08L298.85 7.50Q299.80 8.03 300.33 8.59Q300.86 9.15 300.86 9.92L300.86 9.92Q300.86 10.99 300.01 11.76L300.01 11.76Q299.14 12.54 297.68 12.54L297.68 12.54Q297.12 12.54 296.62 12.41Q296.12 12.29 296.06 12.29L296.06 12.29Q295.81 12.29 295.81 12.58L295.81 12.58L295.83 12.76L295.35 12.80Q295.29 12.41 294.80 10.04ZM309.02 10.04L309.02 10.04L309.51 9.98L309.70 10.85Q309.80 11.33 309.87 11.41Q309.94 11.49 310.35 11.64L310.35 11.64Q311.19 11.95 312.09 11.95L312.09 11.95Q312.87 11.95 313.41 11.49L313.41 11.49Q313.95 11.04 313.95 10.26L313.95 10.26Q313.95 9.65 313.49 9.21L313.49 9.21Q313.01 8.76 312.16 8.30L312.16 8.30L311.58 7.98Q310.84 7.55 310.60 7.36L310.60 7.36Q310.24 7.08 309.93 6.59Q309.62 6.10 309.62 5.46L309.62 5.46Q309.62 4.39 310.46 3.68Q311.30 2.97 312.41 2.97L312.41 2.97Q312.69 2.97 313.04 3.04L313.04 3.04Q313.24 3.08 313.57 3.17L313.57 3.17L313.81 3.25Q313.91 3.25 313.95 3.16L313.95 3.16Q314.00 3.05 314.00 2.98L314.00 2.98L314.02 2.88L314.49 2.85L314.71 5.41L314.20 5.43L314.08 4.18Q313.33 3.62 312.17 3.62L312.17 3.62Q311.53 3.62 311.02 4.05L311.02 4.05Q310.54 4.47 310.54 5.12L310.54 5.12Q310.54 5.72 310.99 6.17L310.99 6.17Q311.42 6.60 312.29 7.08L312.29 7.08L313.07 7.50Q314.02 8.03 314.55 8.59Q315.08 9.15 315.08 9.92L315.08 9.92Q315.08 10.99 314.23 11.76L314.23 11.76Q313.36 12.54 311.90 12.54L311.90 12.54Q311.34 12.54 310.84 12.41Q310.34 12.29 310.28 12.29L310.28 12.29Q310.03 12.29 310.03 12.58L310.03 12.58L310.04 12.76L309.57 12.80Q309.50 12.41 309.02 10.04ZM323.85 3.64L323.26 3.64L323.28 3.08L326.79 3.08L326.79 3.64L326.56 3.64Q326.01 3.64 325.84 3.73L325.84 3.73Q325.71 3.81 325.71 4.28L325.71 4.28L325.71 11.22Q325.71 11.68 325.81 11.77Q325.92 11.87 326.46 11.87L326.46 11.87L327.00 11.87L327.02 12.41L323.44 12.41L323.42 11.87L323.78 11.87Q324.34 11.87 324.46 11.77Q324.57 11.67 324.57 11.25L324.57 11.25L324.57 4.14Q324.57 3.77 324.47 3.71L324.47 3.71Q324.36 3.64 323.85 3.64L323.85 3.64ZM335.14 7.83L335.14 7.83Q335.14 6.62 335.54 5.68L335.54 5.68Q335.96 4.72 336.65 4.12L336.65 4.12Q337.34 3.51 338.20 3.19L338.20 3.19Q339.04 2.88 339.99 2.88L339.99 2.88Q341.25 2.88 342.30 3.40L342.30 3.40Q343.38 3.93 344.09 5.07L344.09 5.07Q344.79 6.17 344.80 7.75L344.80 7.75Q344.80 8.70 344.49 9.54Q344.18 10.38 343.58 11.10Q342.97 11.81 342.04 12.22L342.04 12.22Q341.07 12.63 339.88 12.64L339.88 12.64Q338.75 12.64 337.81 12.23Q336.88 11.83 336.31 11.14L336.31 11.14Q335.74 10.45 335.45 9.60L335.45 9.60Q335.14 8.72 335.14 7.83ZM336.40 7.38L336.40 7.38Q336.40 8.52 336.83 9.60L336.83 9.60Q337.23 10.64 338.16 11.33L338.16 11.33Q339.07 12.03 340.26 12.04L340.26 12.04Q341.63 12.04 342.57 11.01L342.57 11.01Q343.52 9.97 343.52 8.10L343.52 8.10Q343.52 5.99 342.36 4.72L342.36 4.72Q341.21 3.46 339.70 3.45L339.70 3.45Q339.18 3.45 338.64 3.65Q338.09 3.85 337.59 4.25L337.59 4.25Q337.04 4.68 336.72 5.48L336.72 5.48Q336.40 6.27 336.40 7.38ZM352.93 3.64L352.91 3.08L355.09 3.08L360.82 10.48L360.82 4.14Q360.82 3.81 360.67 3.72Q360.51 3.64 360.06 3.64L360.06 3.64L359.56 3.64L359.59 3.08L362.57 3.08L362.57 3.64L362.25 3.64Q361.79 3.64 361.63 3.75Q361.48 3.86 361.48 4.25L361.48 4.25L361.48 12.32L361.48 12.47Q361.48 12.52 361.47 12.57Q361.46 12.61 361.42 12.64L361.42 12.64Q361.41 12.65 361.35 12.65L361.35 12.65L361.16 12.65L361.10 12.65L361.07 12.65L361.05 12.64Q361.02 12.64 361.01 12.63Q360.99 12.61 360.99 12.60Q360.99 12.58 360.98 12.57L360.98 12.57Q360.95 12.54 360.92 12.50L360.92 12.50Q360.91 12.48 360.89 12.45Q360.87 12.41 360.86 12.40L360.86 12.40L354.75 4.56L354.82 11.22Q354.82 11.67 354.98 11.77L354.98 11.77Q355.14 11.87 355.85 11.87L355.85 11.87L356.09 11.87L356.09 12.41L353.15 12.41L353.15 11.87L353.58 11.87Q353.95 11.87 354.06 11.76L354.06 11.76Q354.16 11.66 354.16 11.25L354.16 11.25L354.16 3.80L354.02 3.64L352.93 3.64Z"></path></g></svg>